<?xml version="1.0" encoding="UTF-8"?>
<svg id="Layer_3" data-name="Layer 3" xmlns="http://www.w3.org/2000/svg" viewBox="0 0 336.23 336.23">
  <defs>
    <style>
      .cls-1 {
        fill: #07899b;
      }
    </style>
  </defs>
  <g>
    <path class="cls-1" d="M225.65,137.69c-18.03,0-37.26,23.32-43.75,49.06-.1.4-.32.75-.63,1.01-.45.39-.92,1.02-1.52,1.97-11.81,23.28-17.79,29.76-21.78,29.59-3.66-.16-3.33-4.49-.33-11.97,10.31-25.11,21.28-47.22,21.28-59.19,0-6.32-3.33-10.31-9.64-10.31-8.98,0-19.62,8.81-35.08,35.75-1,1.83-2.16,2.33-2.83,2.33s-1.33-.66-.33-3.16l5.32-13.63c2.33-5.99,3.99-9.81,3.99-13.3.17-4.16-1.16-7.65-7.65-7.81-9.41-.31-20.39,17.69-29.23,35.7-.74,1.51-2.92,1.52-3.65,0-3.6-7.54-9.25-14.32-15.03-19.9-8.81-8.81-17.79-19.95-17.79-31.09s10.97-27.93,27.1-27.93c21.11,0,24.44,7.65,18.95,38.74-.17,1.5.17,2.33,1,2.33s1.5-1,2-2.49c1.66-6.32,4.16-24.44,8.65-38.9.33-1.33,0-2-.83-2-1.5,0-4.49.83-7.81.83-5.82,0-9.81-1.5-19.62-1.5-21.61,0-38.41,18.12-38.41,36.41,0,12.64,9.14,24.94,18.62,34.08,9.14,8.81,17.79,20.95,17.79,32.92,0,15.63-12.14,31.92-30.76,31.92s-23.77-8.15-23.77-27.27c0-4.49.33-9.64.66-15.63.17-1-.5-1.33-1.16-1.33s-1.33.5-1.66,1.33c-2,7.65-2.16,30.09-6.15,43.23-.67,1.5-.17,2,.66,2,1.66,0,4.66-.83,8.81-.83,4.82,0,11.97,1.5,18.45,1.5,25.77,0,44.22-17.46,44.22-40.4,0-2.77-.38-5.48-1.04-8.13-.17-.68.05-1.37.52-1.89.38-.42.76-1.05,1.22-1.95,11.3-23.44,18.45-30.09,22.45-29.93,3.66,0,3.49,4.49.66,11.97l-19.29,55.03c-3.82,11.31-1.66,14.8,3.16,14.8,3.99,0,7.48-2,8.48-5.32,1-3.49-1.16-9.48,2.99-22.28,11.97-34.75,32.75-56.53,41.73-56.53,2.66,0,3.99,2,3.99,6.15,0,8.65-11.31,32.42-20.62,55.86-2.16,5.98-3.33,10.14-3.49,13.47-.16,4.16.83,7.81,7.48,8.15,7.74.38,16.05-11.62,23.77-25.75,1.02-1.87,3.85-1.15,3.85.97h0c0,15.46,6.98,25.27,19.29,25.27,22.28,0,46.39-34.58,46.39-66.01,0-15.46-7.32-25.94-19.62-25.94ZM201.87,225.15c-8.81,0-11.97-8.65-11.97-20.12,0-27.93,17.62-62.85,32.75-62.85,8.81,0,12.14,9.14,12.14,20.62,0,28.1-17.79,62.35-32.92,62.35Z"/>
    <path class="cls-1" d="M292.99,137.86c-10.31,0-22.11,16.79-31.92,34.75-1.16,2-1.83,2.33-2.66,2.33s-1.16-1-.5-2.83l12.64-32.75c4.49-11.8,11.14-31.42,17.29-47.05.83-2.16.83-2.83-.83-2.83-1.83,0-3.82,1.33-6.32,2.49-4.99,2.83-17.12,3.49-21.28,3.49-1.83,0-2.83.33-2.83,1.5,0,1,.83,1.16,2.16,1.16,2.33,0,4.32-.17,7.98-.17,7.32,0,6.48,4.32,4.16,11.31l-31.59,94.6c-3.82,11.14-7.81,16.96-7.81,19.12,0,2.83,15.63,6.65,25.44,6.65,28.43,0,48.05-42.9,48.05-71.82,0-11.64-3.33-19.95-11.97-19.95ZM257.91,226.14c-7.15,0-14.3-5.32-12.3-10.97l7.32-20.78c6.65-19.62,24.61-47.72,35.75-47.72,4.82,0,6.32,4.82,6.32,13.3,0,25.77-15.3,66.17-37.08,66.17Z"/>
  </g>
  <g>
    <path class="cls-1" d="M225.65,137.69c-18.03,0-37.26,23.32-43.75,49.06-.1.4-.32.75-.63,1.01-.45.39-.92,1.02-1.52,1.97-11.81,23.28-17.79,29.76-21.78,29.59-3.66-.16-3.33-4.49-.33-11.97,10.31-25.11,21.28-47.22,21.28-59.19,0-6.32-3.33-10.31-9.64-10.31-8.98,0-19.62,8.81-35.08,35.75-1,1.83-2.16,2.33-2.83,2.33s-1.33-.66-.33-3.16l5.32-13.63c2.33-5.99,3.99-9.81,3.99-13.3.17-4.16-1.16-7.65-7.65-7.81-9.41-.31-20.39,17.69-29.23,35.7-.74,1.51-2.92,1.52-3.65,0-3.6-7.54-9.25-14.32-15.03-19.9-8.81-8.81-17.79-19.95-17.79-31.09s10.97-27.93,27.1-27.93c21.11,0,24.44,7.65,18.95,38.74-.17,1.5.17,2.33,1,2.33s1.5-1,2-2.49c1.66-6.32,4.16-24.44,8.65-38.9.33-1.33,0-2-.83-2-1.5,0-4.49.83-7.81.83-5.82,0-9.81-1.5-19.62-1.5-21.61,0-38.41,18.12-38.41,36.41,0,12.64,9.14,24.94,18.62,34.08,9.14,8.81,17.79,20.95,17.79,32.92,0,15.63-12.14,31.92-30.76,31.92s-23.77-8.15-23.77-27.27c0-4.49.33-9.64.66-15.63.17-1-.5-1.33-1.16-1.33s-1.33.5-1.66,1.33c-2,7.65-2.16,30.09-6.15,43.23-.67,1.5-.17,2,.66,2,1.66,0,4.66-.83,8.81-.83,4.82,0,11.97,1.5,18.45,1.5,25.77,0,44.22-17.46,44.22-40.4,0-2.77-.38-5.48-1.04-8.13-.17-.68.05-1.37.52-1.89.38-.42.76-1.05,1.22-1.95,11.3-23.44,18.45-30.09,22.45-29.93,3.66,0,3.49,4.49.66,11.97l-19.29,55.03c-3.82,11.31-1.66,14.8,3.16,14.8,3.99,0,7.48-2,8.48-5.32,1-3.49-1.16-9.48,2.99-22.28,11.97-34.75,32.75-56.53,41.73-56.53,2.66,0,3.99,2,3.99,6.15,0,8.65-11.31,32.42-20.62,55.86-2.16,5.98-3.33,10.14-3.49,13.47-.16,4.16.83,7.81,7.48,8.15,7.74.38,16.05-11.62,23.77-25.75,1.02-1.87,3.85-1.15,3.85.97h0c0,15.46,6.98,25.27,19.29,25.27,22.28,0,46.39-34.58,46.39-66.01,0-15.46-7.32-25.94-19.62-25.94ZM201.87,225.15c-8.81,0-11.97-8.65-11.97-20.12,0-27.93,17.62-62.85,32.75-62.85,8.81,0,12.14,9.14,12.14,20.62,0,28.1-17.79,62.35-32.92,62.35Z"/>
    <path class="cls-1" d="M292.99,137.86c-10.31,0-22.11,16.79-31.92,34.75-1.16,2-1.83,2.33-2.66,2.33s-1.16-1-.5-2.83l12.64-32.75c4.49-11.8,11.14-31.42,17.29-47.05.83-2.16.83-2.83-.83-2.83-1.83,0-3.82,1.33-6.32,2.49-4.99,2.83-17.12,3.49-21.28,3.49-1.83,0-2.83.33-2.83,1.5,0,1,.83,1.16,2.16,1.16,2.33,0,4.32-.17,7.98-.17,7.32,0,6.48,4.32,4.16,11.31l-31.59,94.6c-3.82,11.14-7.81,16.96-7.81,19.12,0,2.83,15.63,6.65,25.44,6.65,28.43,0,48.05-42.9,48.05-71.82,0-11.64-3.33-19.95-11.97-19.95ZM257.91,226.14c-7.15,0-14.3-5.32-12.3-10.97l7.32-20.78c6.65-19.62,24.61-47.72,35.75-47.72,4.82,0,6.32,4.82,6.32,13.3,0,25.77-15.3,66.17-37.08,66.17Z"/>
  </g>
</svg>